<?xml version="1.0" encoding="UTF-8"?>
<svg id="Layer_1" xmlns="http://www.w3.org/2000/svg" version="1.1" viewBox="0 0 390.93 146.58">
  <!-- Generator: Adobe Illustrator 30.6.0, SVG Export Plug-In . SVG Version: 2.1.4 Build 109)  -->
  <defs>
    <style>
      .st0 {
        fill: #cec528;
      }

      .st1 {
        fill: #e5e028;
      }

      .st2 {
        fill: #ada42a;
      }

      .st3 {
        fill: gray;
      }

      .st4 {
        fill: #ff0;
      }
    </style>
  </defs>
  <path class="st4" d="M95.74,61.74h-20.69l10.05-46.57h-15.56l-10.87,46.57h-20.8l10.04-46.57h-15.68l-10.85,46.57H0L14.14.2h79.29c14.39,0,14.63,6.68,14,9.72l-11.68,51.83Z"/>
  <path class="st4" d="M177.09,26.35l2.9-13.5h-43.99l-2.79,13.5h43.88ZM190.2,62.04h-19.67l4-23.26h-44.17l-4.07,23.26h-19.57l10.6-53.8c1.49-6.19,2.54-7.9,15.25-7.9h56.43c10.37,0,12.73,3.44,11.49,9.51l-10.28,52.19Z"/>
  <polygon class="st4" points="179.41 87.01 236.19 29.74 205.86 .17 228.68 .17 247.77 18.59 266.92 .17 289.05 .17 258.65 29.73 290.82 61.07 268.64 61.07 248.9 41 202.9 87.01 179.41 87.01"/>
  <polygon class="st1" points="303.04 61.7 270.11 29.59 300.85 0 323.62 0 293.25 29.56 326.55 61.7 303.04 61.7"/>
  <polygon class="st0" points="335.24 61.7 302.31 29.59 333.05 0 355.81 0 325.44 29.56 358.76 61.7 335.24 61.7"/>
  <polygon class="st2" points="367.42 61.7 334.48 29.59 365.19 0 388 0 357.59 29.56 390.93 61.7 367.42 61.7"/>
  <path class="st3" d="M8.34,128.13c-2.26-.97-4.04-2.33-5.35-4.06-1.31-1.74-2.03-3.74-2.17-5.99h6.37c.18,1.85,1.05,3.36,2.61,4.54,1.56,1.17,3.6,1.76,6.13,1.76,2.35,0,4.2-.52,5.55-1.56,1.36-1.04,2.03-2.35,2.03-3.93s-.72-2.83-2.17-3.62c-1.44-.79-3.68-1.57-6.7-2.34-2.75-.72-5-1.46-6.74-2.2s-3.23-1.85-4.47-3.32c-1.24-1.47-1.86-3.4-1.86-5.79,0-1.89.56-3.63,1.69-5.21,1.13-1.58,2.73-2.83,4.81-3.76,2.08-.92,4.44-1.39,7.11-1.39,4.11,0,7.43,1.04,9.95,3.12s3.88,4.92,4.06,8.53h-6.16c-.13-1.94-.91-3.5-2.34-4.67-1.42-1.17-3.33-1.76-5.72-1.76-2.21,0-3.97.47-5.28,1.42-1.31.95-1.96,2.19-1.96,3.72,0,1.22.39,2.22,1.18,3.01.79.79,1.78,1.42,2.98,1.89,1.19.47,2.85,1.01,4.98,1.59,2.66.72,4.83,1.43,6.5,2.13,1.67.7,3.1,1.75,4.3,3.15,1.19,1.4,1.82,3.23,1.86,5.48,0,2.03-.57,3.86-1.69,5.48-1.13,1.63-2.72,2.9-4.77,3.83-2.05.92-4.41,1.39-7.08,1.39-2.84,0-5.4-.49-7.65-1.46"/>
  <path class="st3" d="M95.86,93.39c2.41-1.42,5.22-2.13,8.43-2.13s6.29.79,8.97,2.37c2.68,1.58,4.8,3.8,6.33,6.67,1.54,2.87,2.3,6.19,2.3,9.99s-.77,7.09-2.3,10.02c-1.53,2.93-3.65,5.21-6.33,6.84-2.69,1.63-5.68,2.44-8.97,2.44s-5.95-.71-8.36-2.13c-2.41-1.42-4.26-3.19-5.52-5.32v24.44h-6.16v-54.71h6.16v6.84c1.22-2.12,3.03-3.89,5.45-5.32M113.9,102.98c-1.13-2.08-2.65-3.66-4.57-4.74-1.92-1.08-4.03-1.63-6.33-1.63s-4.35.55-6.26,1.66c-1.92,1.11-3.45,2.71-4.6,4.81-1.15,2.1-1.73,4.53-1.73,7.28s.58,5.25,1.73,7.35c1.15,2.1,2.68,3.7,4.6,4.81,1.92,1.11,4.01,1.66,6.26,1.66s4.41-.55,6.33-1.66c1.92-1.11,3.44-2.71,4.57-4.81,1.13-2.1,1.69-4.57,1.69-7.42s-.57-5.23-1.69-7.31"/>
  <path class="st3" d="M176.06,100.3c1.54-2.87,3.65-5.09,6.33-6.67,2.68-1.58,5.68-2.37,8.97-2.37s6.07.7,8.46,2.1c2.39,1.4,4.17,3.16,5.35,5.28v-6.77h6.23v37.11h-6.23v-6.91c-1.22,2.17-3.04,3.96-5.45,5.38-2.41,1.42-5.22,2.13-8.43,2.13s-6.28-.81-8.94-2.44c-2.66-1.63-4.76-3.9-6.3-6.84-1.53-2.93-2.3-6.27-2.3-10.02s.77-7.12,2.3-9.99M203.49,103.04c-1.13-2.08-2.65-3.67-4.57-4.77-1.92-1.11-4.03-1.66-6.33-1.66s-4.4.54-6.3,1.63c-1.89,1.08-3.41,2.67-4.54,4.74-1.13,2.08-1.69,4.51-1.69,7.31s.56,5.32,1.69,7.42c1.13,2.1,2.64,3.7,4.54,4.81,1.9,1.11,4,1.66,6.3,1.66s4.41-.55,6.33-1.66c1.92-1.11,3.44-2.71,4.57-4.81,1.13-2.1,1.69-4.55,1.69-7.35s-.57-5.23-1.69-7.31"/>
  <path class="st3" d="M267.88,100.3c1.53-2.87,3.67-5.09,6.4-6.67,2.73-1.58,5.86-2.37,9.38-2.37,4.56,0,8.32,1.11,11.27,3.32,2.96,2.21,4.91,5.28,5.86,9.21h-6.64c-.63-2.26-1.86-4.04-3.69-5.35-1.83-1.31-4.1-1.96-6.81-1.96-3.52,0-6.37,1.21-8.53,3.62-2.17,2.41-3.25,5.83-3.25,10.26s1.08,7.92,3.25,10.36c2.17,2.44,5.01,3.65,8.53,3.65,2.71,0,4.96-.63,6.77-1.89,1.8-1.26,3.05-3.07,3.72-5.42h6.64c-.99,3.79-2.98,6.83-5.96,9.11-2.98,2.28-6.71,3.42-11.17,3.42-3.52,0-6.65-.79-9.38-2.37-2.73-1.58-4.87-3.82-6.4-6.71-1.54-2.89-2.3-6.27-2.3-10.16s.77-7.19,2.3-10.06"/>
  <path class="st3" d="M388.68,112.73h-29.66c.22,3.66,1.48,6.51,3.76,8.57,2.28,2.06,5.05,3.08,8.3,3.08,2.66,0,4.89-.62,6.67-1.86,1.78-1.24,3.04-2.9,3.76-4.98h6.64c-.99,3.57-2.98,6.47-5.96,8.7-2.98,2.23-6.68,3.35-11.1,3.35-3.52,0-6.67-.79-9.45-2.37-2.78-1.58-4.95-3.83-6.53-6.74-1.58-2.91-2.37-6.29-2.37-10.12s.77-7.2,2.3-10.09c1.53-2.89,3.69-5.11,6.47-6.67,2.78-1.56,5.97-2.34,9.58-2.34s6.64.77,9.34,2.3c2.71,1.54,4.8,3.65,6.26,6.33,1.47,2.69,2.2,5.72,2.2,9.11,0,1.17-.07,2.41-.2,3.72M380.96,101.66c-1.04-1.69-2.45-2.98-4.23-3.86-1.78-.88-3.76-1.32-5.93-1.32-3.11,0-5.77.99-7.95,2.98-2.19,1.99-3.44,4.74-3.76,8.26h23.43c0-2.35-.52-4.37-1.56-6.06"/>
</svg>